<svg width="80" height="33" viewBox="0 0 80 33" fill="none" xmlns="http://www.w3.org/2000/svg">
<path fill-rule="evenodd" clip-rule="evenodd" d="M0 32.7711H79.9885L80 0H0V32.7711ZM40 30.8862C17.667 30.8862 1.5592 24.3066 1.5592 16.3856C1.5592 8.46452 17.6555 1.88486 39.9886 1.88486C62.3216 1.88486 78.4294 8.45296 78.4294 16.3856C78.4294 24.3181 62.3331 30.8862 40 30.8862Z" fill="white"/>
<path d="M37.7302 21.0341C37.9824 21.4041 38.2575 21.7511 38.5786 22.0633H29.9228C29.9228 21.7164 29.6018 21.011 29.2234 20.4559C28.8451 19.9009 26.8732 16.8597 26.8732 16.8597V21.0341C26.8732 21.381 26.8732 21.7164 27.0452 22.0633H19.8339C20.0059 21.7164 20.0059 21.381 20.0059 21.0341V11.1126C20.0059 10.7657 20.0059 10.4303 19.8339 10.0834H27.0452C26.8732 10.4303 26.8732 10.7657 26.8732 11.1126V15.4374C26.8732 15.4374 29.1776 12.4193 29.7049 11.7023C30.1062 11.1704 30.5992 10.4188 30.5992 10.0719H38.12C37.6041 10.4188 37.0308 11.0432 36.5608 11.6214C36.1481 12.1302 33.8093 15.0095 33.8093 15.0095C33.8093 15.0095 37.2716 20.3519 37.7302 21.0341ZM39.9887 11.1126V21.0341C39.9887 21.381 39.9887 21.7164 39.8167 22.0633H53.7348V18.7445C53.3908 18.918 53.0583 18.918 52.7144 18.918H46.856V17.3453H52.4851V14.8245H46.856V13.2519H52.7144C53.0583 13.2519 53.3908 13.2518 53.7348 13.4137V10.095H39.8282C39.9887 10.4303 39.9887 10.7657 39.9887 11.1126ZM73.0297 21.0341C73.1443 21.4157 73.3392 21.7626 73.5915 22.0633H66.0477C66.0821 21.7164 65.956 21.381 65.8184 21.0341C65.8184 21.0341 65.7038 20.7566 65.5433 20.3519L65.4745 20.1784H61.1294L61.0606 20.3519C61.0606 20.3519 60.9345 20.6872 60.8199 21.0341C60.7052 21.381 60.5791 21.7164 60.625 22.0633H54.6749C54.9156 21.7626 55.099 21.4157 55.2137 21.0341C55.4086 20.4906 58.504 11.8874 58.7792 11.1126C58.9053 10.7657 59.0314 10.4303 58.9855 10.0834H69.04C68.9483 10.4303 69.1317 10.7657 69.2578 11.1126C69.5559 11.8758 72.7775 20.3634 73.0297 21.0341ZM64.5229 17.646C63.9726 16.2006 63.5255 14.9979 63.4682 14.8707C63.3765 14.6163 63.2962 14.3504 63.2389 14.0844C63.1931 14.3504 63.1128 14.6163 63.0326 14.8707C62.9982 14.9864 62.551 16.2006 62.0351 17.646H64.5229ZM16.4175 10.0834H8.57568C8.74765 10.4303 8.74765 10.7657 8.74765 11.1126V21.0341C8.74765 21.381 8.74765 21.7164 8.57568 22.0633H16.4175C16.2455 21.7164 16.2455 21.381 16.2455 21.0341V11.1126C16.2455 10.7657 16.2455 10.4188 16.4175 10.0834ZM70.6221 11.0316C70.5877 10.1875 71.2412 9.48213 72.0781 9.45901C72.1125 9.45901 72.1469 9.45901 72.1813 9.45901C73.0297 9.44744 73.729 10.1297 73.7405 10.9738C73.7405 10.997 73.7405 11.0085 73.7405 11.0316C73.7634 11.8989 73.087 12.6274 72.2157 12.6505C71.3559 12.6737 70.6336 11.9914 70.6107 11.1126C70.6221 11.0895 70.6221 11.0548 70.6221 11.0316ZM70.9317 11.0316C70.9317 11.7255 71.482 12.2921 72.1813 12.3036C72.8692 12.3036 73.4309 11.7486 73.4424 11.0432C73.4424 10.3494 72.8921 9.78279 72.1928 9.77122C71.5278 9.7481 70.9661 10.2685 70.9431 10.9391C70.9317 10.9738 70.9317 10.997 70.9317 11.0316ZM71.8718 11.9683H71.5966V10.0834H72.2959C72.6284 10.095 72.8806 10.361 72.8806 10.6963C72.8806 10.9276 72.7545 11.1357 72.5482 11.2514L72.9494 11.9799H72.6399L72.273 11.3092H71.8718V11.9683ZM71.8718 11.0316H72.2501C72.4335 11.0432 72.594 10.9045 72.594 10.7194C72.6055 10.5344 72.4679 10.3725 72.2845 10.3725C72.273 10.3725 72.2616 10.3725 72.2501 10.3725H71.8718V11.0316Z" fill="white"/>
</svg>
